<svg xmlns="http://www.w3.org/2000/svg" width="16" height="16" fill="none"><path d="M11.585 0h-7.17A4.42 4.42 0 0 0 0 4.415v7.17A4.42 4.42 0 0 0 4.415 16h7.17A4.42 4.42 0 0 0 16 11.585v-7.17A4.42 4.42 0 0 0 11.585 0zm2.995 11.585a3 3 0 0 1-2.995 2.995h-7.17a3 3 0 0 1-2.995-2.995v-7.17A3 3 0 0 1 4.415 1.42h7.17a3 3 0 0 1 2.995 2.995v7.17z" fill="#333"/><path d="M8.002 3.877A4.127 4.127 0 0 0 3.879 8a4.127 4.127 0 0 0 4.123 4.122A4.127 4.127 0 0 0 12.124 8a4.127 4.127 0 0 0-4.122-4.123zm0 6.826A2.706 2.706 0 0 1 5.298 8a2.706 2.706 0 0 1 2.704-2.704A2.706 2.706 0 0 1 10.705 8a2.706 2.706 0 0 1-2.703 2.703zm4.293-8.029a1.045 1.045 0 0 0-1.041 1.04c0 .274.112.543.306.737.193.193.461.305.735.305.274 0 .542-.112.736-.305a1.045 1.045 0 0 0 0-1.473 1.045 1.045 0 0 0-.736-.304z" fill="#333"/></svg>